<svg width="88" height="87" viewBox="0 0 88 87" fill="none" xmlns="http://www.w3.org/2000/svg">
<path d="M35.5301 61.625H52.4695M43.9998 10.875V14.5M67.0692 20.4306L64.5059 22.9939M76.625 43.4998H73M15 43.4998H11.375M23.4937 22.9939L20.9304 20.4306M31.1835 56.3164C24.1052 49.2381 24.1052 37.762 31.1835 30.6838C38.2617 23.6055 49.7379 23.6055 56.8161 30.6838C63.8944 37.762 63.8944 49.2381 56.8161 56.3164L54.8329 58.2996C52.5387 60.5938 51.2498 63.7054 51.2498 66.9499V68.875C51.2498 72.8791 48.0039 76.125 43.9998 76.125C39.9957 76.125 36.7498 72.8791 36.7498 68.875V66.9499C36.7498 63.7054 35.4609 60.5938 33.1667 58.2996L31.1835 56.3164Z" stroke="#21272A" stroke-width="2" stroke-linecap="round" stroke-linejoin="round"/>
</svg>
